<?xml version="1.0" encoding="UTF-8"?>
<svg id="Capa_1" data-name="Capa 1" xmlns="http://www.w3.org/2000/svg" viewBox="0 0 541.88 214.72">
  <defs>
    <style>
      .cls-1 {
        fill: #ffc8dd;
      }

      .cls-2 {
        fill: #bde0fe;
      }
    </style>
  </defs>
  <path class="cls-1" d="M123.67,169.87c-.51,7.41-4.07,12.5-10.54,15.41-6.47,2.91-12.57,1.74-18.1-3.49-17.15-19.48-35.54-37.57-55.16-54.36,4.22,20.64,9.45,41.06,15.77,61.27,1.82,6.98.44,12.35-4.07,16.06-4.51,3.78-9.67,5.16-15.63,4.29-5.89-.87-10.18-4.65-12.72-11.41C12.69,163.84,4.98,129.39.26,94.28c-.65-4.65-.07-8.87,1.82-12.72,1.82-3.85,5.16-6.47,9.96-7.92.58-.15,1.16-.29,1.82-.36,3.63-.94,7.49-.15,11.63,2.25,23.48,15.04,44.91,32.41,64.46,52.18-.07-5.01-.07-10.03-.07-15.04-.07-11.77-.07-23.55-.15-35.32.36-7.2,3.27-11.99,8.65-14.39,5.38-2.4,10.76-2.4,16.21,0,5.38,2.4,8.29,7.19,8.79,14.39.15,30.89.22,61.7.29,92.52Z"/>
  <path class="cls-1" d="M192.77,78.22c-.51,1.96-1.02,3.92-1.45,5.89-.51,1.96-1.02,3.92-1.45,5.89,3.42.65,6.83,1.31,10.32,1.96,3.42.65,6.83,1.38,10.32,2.04,4.51,1.09,7.92,3.71,10.1,7.85,2.11,4.14,2.69,8.43,1.6,12.79-1.38,4.72-4.07,8.07-7.92,10.03-3.85,1.96-8.14,2.54-12.72,1.74-3.34-.65-6.61-1.31-9.88-1.89-3.27-.65-6.61-1.31-9.88-1.89-1.96,8.07-4,16.21-6.03,24.35,8.14,1.09,16.13,2.47,24.13,4.14,6.98,1.96,10.9,5.74,11.85,11.48.87,5.67-.58,10.9-4.36,15.55-3.78,4.72-9.23,6.54-16.43,5.38-11.92-2.54-23.91-4.22-36.12-5.01-5.67-.51-10.03-2.76-13.23-6.76-3.2-4-4.14-8.79-2.98-14.54,4-16.06,7.92-32.12,11.92-48.19,3.92-16.13,7.92-32.2,11.92-48.26-.36-4.65.8-8.72,3.49-12.28,2.69-3.56,6.9-5.31,12.65-5.23,15.84.65,31.32,3.2,46.51,7.78,6.76,2.47,10.61,6.69,11.48,12.57.87,5.89-.58,11.12-4.29,15.63-3.71,4.51-9.08,5.89-16.13,4.22-7.78-2.4-15.55-4.14-23.4-5.23Z"/>
  <path class="cls-1" d="M355.05,108.96c-1.02,4.65-3.56,8.07-7.78,10.17-11.19,5.01-22.38,9.96-33.58,14.97-2.69,1.16-5.52,2.4-8.43,3.49-3.27,1.31-6.47,2.62-9.74,4.07,13.66,14.97,27.54,29.73,41.79,44.19,4.72,5.45,6.11,10.9,4,16.43-2.18,5.52-5.96,9.38-11.48,11.48s-10.9.73-16.28-4.14c-14.17-14.39-28.05-29.07-41.57-43.97l-4.51,26.38c-1.02,4.58-3.63,7.92-7.85,10.1-4.22,2.18-8.43,2.69-12.79,1.67-4.72-1.45-8.07-4.14-10.03-7.99-1.89-3.85-2.47-8.07-1.67-12.72,1.74-10.61,3.56-21.22,5.31-31.91.94-5.31,1.82-10.61,2.69-15.92.65-3.71,1.31-7.49,2.04-11.19,2.54-11.77,4.07-23.62,4.58-35.54.58-7.2,3.56-11.99,9.01-14.39,5.38-2.4,10.83-2.4,16.13,0,5.38,2.4,8.21,7.19,8.5,14.39-.22,7.7-.94,15.26-2.11,22.89,10.03-4.94,20.35-9.52,30.82-13.66,6.25-2.47,12.28-5.01,18.24-7.63,4.29-1.96,8.58-2.47,12.72-1.6,4.21.87,7.63,3.42,10.25,7.63,2.18,3.85,2.69,8.14,1.74,12.79Z"/>
  <g>
    <g>
      <path class="cls-2" d="M347.29,30.41c2.58-2.22,5.37-3.34,8.37-3.35,1.85.1,3.36.52,4.51,1.26,1.04.61,1.88,1.29,2.52,2.04l.27.32c1.01,1.17,1.65,2.73,1.94,4.67l.02.02c1.45.03,2.4.12,2.84.25,2.14.67,3.81,1.7,5,3.09l.46.53c1.14,1.33,1.8,3.07,1.98,5.22-.03,1.86-.21,3.15-.53,3.88-.28.96-.73,2.01-1.33,3.12-1.25,2.1-2.65,3.82-4.2,5.15-2.17,1.86-4.18,2.4-6.02,1.62-1.11-.59-1.87-1.13-2.29-1.62-3.26-2.95-7.02-6.91-11.28-11.88-3.3-3.84-5.11-6.4-5.43-7.69-.27-.96-.21-1.94.17-2.93.65-1.3,1.65-2.53,3.01-3.69ZM352,36.07c.9,1.19,2.06,2.61,3.48,4.27l.11.12s.04-.02.05-.01c1.81-2.57,2.34-4.29,1.59-5.16-.96-1.11-2.26-1.17-3.91-.16-.18.07-.62.39-1.32.95ZM360.6,45.98l.02.02c.62.72,2.07,2.2,4.33,4.43l.02-.02c.76-.65,1.55-1.79,2.39-3.41.62-1.48.66-2.54.12-3.17l-.09-.11c-.98-1.14-2.15-1.32-3.53-.55-.63.35-1.19.74-1.68,1.17-.43.37-.95.91-1.57,1.63Z"/>
      <path class="cls-2" d="M380.26,16.33c2.35-1.14,5.07-1.85,8.17-2.12,1.63.1,2.76.81,3.41,2.15l.13.33c.85.32,1.6,1.15,2.26,2.5.03-.01.26.44.71,1.35.44.9.87,1.82,1.31,2.75,2.69,5.24,4.2,8.22,4.54,8.92.47.97.43,2.06-.11,3.26-.41.72-.97,1.25-1.65,1.58-.94.46-1.97.48-3.07.06h-.05c-1.53,1.97-3.2,3.4-5.03,4.29l-.57.28c-2.19,1.06-4.57,1.35-7.12.85-3.57-.91-6.3-3.32-8.2-7.22-2.18-4.48-2.6-8.58-1.27-12.28,1.19-2.92,3.37-5.15,6.55-6.7ZM381.58,32.03c1.09,2.23,2.37,3.37,3.84,3.4.59,0,1.23-.16,1.92-.49l.04-.02c1.41-.68,2.43-1.69,3.09-3.04.11-.35.14-.88.08-1.6-.25-1.72-.66-3.19-1.25-4.4-.28-.58-.96-1.95-2.05-4.11-1.46.28-2.74.68-3.82,1.2-2.18,1.06-3.23,2.55-3.14,4.47.1,1.5.53,3.02,1.29,4.58Z"/>
      <path class="cls-2" d="M410.89,7.74l.85-.16c1.75-.33,3.64,0,5.65,1.01,1.67.91,2.61,1.95,2.83,3.11l.05.25c.25,1.34-.26,2.54-1.54,3.61-.47.28-.9.46-1.29.53l-.23.04c-1.06.2-2.18-.15-3.35-1.06-.4-.19-.81-.25-1.23-.17-.6.11-1.02.52-1.27,1.22-.29.56-.53,1.54-.71,2.93-.27,3.12-.05,6.53.65,10.23.14.56.22.94.26,1.12.11.58-.04,1.32-.46,2.21-.64,1.01-1.44,1.61-2.4,1.79l-.25.05c-1.34.25-2.54-.26-3.61-1.54-.32-.37-.69-1.65-1.11-3.85-2.16-9.74-3.31-14.98-3.45-15.73-.19-.98.16-2,1.04-3.06.58-.55,1.19-.89,1.84-1.02l.16-.03c1.09-.21,2.15.13,3.17,1,1.35-1.35,2.82-2.18,4.4-2.48Z"/>
      <path class="cls-2" d="M459.22.03l.23.04c1.34.22,2.29,1.11,2.86,2.68.12.62.16,1.08.11,1.37-.81,4.95-2.24,13.89-4.29,26.82-.16.58-.49,1.15-1,1.74-.87.7-1.64,1.05-2.31,1.05-1.01.06-2.43-.06-4.26-.37-5.33-.87-9.19-2.79-11.57-5.77-1.01-1.4-1.56-2.41-1.67-3.03-.62-1.8-.8-3.53-.53-5.19l.18-1.09c.39-2.36,1.46-4.53,3.23-6.52.4-.49,1.31-1.23,2.74-2.21,2.31-1.36,5-2.15,8.06-2.36,1.8-.1,2.96-.11,3.47-.03l.69-4.19c.22-1.34,1.11-2.3,2.68-2.86.54-.12,1-.14,1.39-.08ZM444.14,20.06v.02c-.34,2.07.6,3.58,2.81,4.55,1.29.65,2.72,1.11,4.31,1.37h.07s.02.02.02.04c.03-.01.06-.01.1,0l.11-.67c.42-2.54.99-6.16,1.73-10.86h-.02c-2.21-.11-4.27.28-6.15,1.17-1.64.86-2.63,2.32-2.97,4.38Z"/>
      <path class="cls-2" d="M480.67,15.27l.53.25c4.46,2.09,7.08,5.21,7.86,9.37.34,2.37-.03,4.71-1.12,7.03-.88,1.87-2.31,2.67-4.31,2.41-.04.08-4.27-1.7-12.68-5.37,0,.85.33,1.81.98,2.89.41.6.99,1.08,1.74,1.43l.38.18c1.85.87,3.55,1.09,5.09.68.73-.04,1.34.06,1.83.29l.21.1c1.23.58,1.91,1.69,2.03,3.35-.05.56-.17,1.02-.33,1.37l-.1.21c-.88,1.88-3.3,2.58-7.24,2.1-1.61-.25-3.18-.74-4.72-1.46-3.08-1.44-5.19-3.64-6.3-6.6-.53-1.42-.83-2.57-.9-3.45-.35-2.6-.11-5.17.73-7.7.17-.47.32-.84.44-1.11l.4-.85c1.12-2.39,2.92-4.23,5.4-5.52,3.1-1.43,6.46-1.3,10.09.4ZM473.21,21.93h.02c.67.32,3.44,1.52,8.33,3.6l.03-.06c-.46-1.3-1.72-2.44-3.79-3.4-2.01-.94-3.49-1.04-4.44-.29-.03-.01-.08.04-.15.16Z"/>
      <path class="cls-2" d="M518.54,31.13c9.73,11.36,14.57,17.06,14.52,17.1.48.97.63,1.86.45,2.67-.24.84-.63,1.5-1.18,1.99-1,.88-2.22,1.1-3.66.67-.64-.25-1.12-.56-1.44-.92-2.81-3.29-4.39-5.15-4.76-5.56l-17.02,15.04c-1.18,1.05-2.57,1.24-4.15.57-.46-.26-.83-.55-1.11-.87-.91-1.03-1.12-2.31-.63-3.82.24-.55.58-1.02,1.02-1.4l17.12-15.13c-3.49-4.04-5.2-6.1-5.13-6.16-.43-.98-.51-1.87-.25-2.69.22-.72.59-1.3,1.1-1.76.99-.88,2.23-1.1,3.69-.67.54.21,1.01.52,1.42.93Z"/>
      <path class="cls-2" d="M534.25,63.41l.29.51c2.43,4.28,2.75,8.34.98,12.19-1.09,2.13-2.75,3.82-4.98,5.09-1.79,1.02-3.43.84-4.91-.53-.08.05-2.49-3.86-7.23-11.72-.49.69-.78,1.66-.88,2.92-.02.73.18,1.45.58,2.17l.21.37c1.01,1.78,2.26,2.95,3.76,3.5.61.39,1.06.82,1.33,1.3l.12.2c.67,1.18.57,2.49-.29,3.91-.37.42-.73.73-1.06.93l-.2.12c-1.81,1.02-4.18.2-7.12-2.49-1.17-1.14-2.17-2.45-3.01-3.93-1.68-2.96-2.12-5.97-1.32-9.03.39-1.46.82-2.57,1.27-3.33,1.22-2.32,2.9-4.27,5.06-5.86.41-.29.75-.5,1.01-.65l.82-.46c2.3-1.3,4.83-1.76,7.6-1.37,3.36.63,6.02,2.69,7.99,6.17ZM524.32,64.51v.02c.37.64,1.95,3.22,4.73,7.75l.06-.03c.38-1.33,0-2.98-1.12-4.97-1.09-1.93-2.25-2.87-3.45-2.81-.02-.03-.09-.01-.22.04Z"/>
    </g>
    <g>
      <path class="cls-2" d="M537.27,59.21c.65,1.72,1.44,3.38,2.37,4.96"/>
      <path class="cls-2" d="M535.1,59.81c.72,1.9,1.57,3.75,2.6,5.5.29.49.8.88,1.34,1.03s1.26.08,1.73-.23c1.02-.66,1.44-1.99.81-3.08-.71-1.21-1.35-2.47-1.9-3.77l.23.54c-.17-.39-.33-.79-.48-1.19-.21-.56-.5-1.03-1.03-1.34-.48-.28-1.19-.4-1.73-.23s-1.07.51-1.34,1.03-.44,1.18-.23,1.73h0Z"/>
    </g>
  </g>
  <path class="cls-1" d="M486.88,89.12c-5.89-16.28-17.44-26.53-34.67-30.74-3.27-4.87-8.07-7.56-14.32-8.14-15.7-1.02-29.8,2.54-42.37,10.76-12.57,8.21-20.64,20.13-24.2,35.76-3.49,17.59-2.25,34.81,3.78,51.82,5.96,17.01,17.73,28.85,35.25,35.61,17.52,4.94,33.07,2.4,46.66-7.7,13.66-10.1,23.47-22.97,29.65-38.52,6.03-16.35,6.11-32.63.22-48.84ZM416.64,82.14c17.19-.85-1.7,30.26-10.43,16.92-4.65-7.11,3.73-16.59,10.43-16.92ZM424.12,154.15c-2.26.61-4.78.72-6.74-.61-4.9-3.34-3-12.83-7.75-16.4-4.93-3.69-21.1,2.82-17.62-10.7.51-1.96,1.66-3.65,2.9-5.18,8.71-10.74,17.76-10.36,29.53-12.44,24.54-4.34,19.71,39.94-.32,45.32ZM437.69,103.64c-1.44.14-2.89-.3-4.31-1.58-4.4-4-2.28-9.85,1.44-13.57,3.23-3.23,17.69-6.76,15.67,2.63-.29,1.36-1.11,2.5-1.95,3.56-2.7,3.4-6.71,8.56-10.85,8.96ZM456.77,144.02c-4.72.92-8.93-.52-7.11-6.98,5.33-18.97,32.65,2,7.11,6.98ZM465.75,114.74c-3.13,3.32-18.58,8.7-17.26-1.28.33-2.47,2.03-4.43,3.64-6.21,3.69-4.07,15.35-11.69,16.9-1.04.46,3.15-1.17,6.3-3.29,8.54Z"/>
</svg>